<svg height="32" viewBox="0 0 155 32" width="155" xmlns="http://www.w3.org/2000/svg"><g><path d="m.768 8.768c0 1.152-.064 2.368-.384 3.264h3.264c-.256-.832-.32-1.92-.32-3.136v-4.352c.448-.384.96-.576 1.728-.576.96 0 1.344.448 1.344 1.28v3.648c0 1.28-.064 2.304-.32 3.136h3.328c-.32-.896-.384-2.112-.384-3.264v-3.776c0-1.92-.64-2.944-2.624-2.944-1.536 0-2.624.96-3.072 2.176h-.128v-2.112l-3.2.896c.384.448.768 1.28.768 2.24zm15.936 3.456c1.088 0 1.6-.512 1.856-1.344.064-.192.128-.384.192-.64-.128.128-.448.128-.512.128-.64 0-.96-.256-.96-1.024v-4.224c0-2.048-.96-3.072-3.456-3.072-1.92 0-3.84.96-3.84 2.304 0 .704.512 1.088 1.088 1.088.64 0 1.024-.384 1.216-1.28.128-.64.384-.96 1.024-.96 1.024 0 1.408.576 1.408 1.664v.192c0 1.024-.768 1.408-2.176 1.92-1.472.576-2.88 1.28-2.88 2.816 0 1.472 1.024 2.432 2.56 2.432 1.28 0 2.112-.576 2.496-1.792h.064c.064.96.704 1.792 1.92 1.792zm-1.984-2.048c-.192.384-.448.64-1.216.64s-1.216-.576-1.216-1.408c0-1.024.32-1.536 1.28-1.984.704-.384.96-.512 1.152-.832zm4.608-.768c0 1.856.768 2.816 2.752 2.816 1.152 0 1.984-.512 2.368-1.28.128-.32.192-.512.256-.832-.32.192-.704.256-1.408.256-.96 0-1.344-.384-1.344-1.408v-5.312h2.24l.256-1.408h-2.496v-2.176l-.128-.064-3.52 3.584v.064h.96v5.76zm5.824-.384c0 1.92.768 3.2 2.88 3.2 1.664 0 2.496-.896 2.88-2.176h.064v1.92h2.944c-.256-.704-.384-1.408-.384-2.944v-6.784l-3.008.32c.32.896.448 1.728.448 2.688v4.544c-.384.512-.96.768-1.792.768-.96 0-1.408-.576-1.408-1.6v-6.72l-3.072.32c.32.896.448 1.728.448 2.688zm9.984-.256c0 1.152-.064 2.368-.384 3.264h3.264c-.256-.896-.32-2.112-.32-3.264v-2.432c0-1.472.576-2.368 1.088-2.368.256 0 .384.256.576.448s.512.384.96.384c.832 0 1.216-.576 1.216-1.344 0-.832-.512-1.344-1.536-1.344-1.088 0-1.92.704-2.368 2.496h-.064v-2.496l-.064-.064-3.2.96c.384.448.768 1.28.768 2.24v3.52zm14.464.64-.064-.192c-.448.448-1.152 1.088-2.688 1.088-1.728 0-2.944-.96-2.944-3.392v-.32h5.696c0-3.008-1.152-4.608-3.712-4.608-2.624 0-4.608 2.176-4.608 5.376s2.048 4.8 4.544 4.8c2.176.064 3.328-1.28 3.776-2.752zm-3.776-6.144c1.088 0 1.344.96 1.344 2.496l-3.264.32c.128-1.984.768-2.816 1.92-2.816zm-31.616 17.92c0-1.92-.512-2.944-2.56-2.944-1.536 0-2.496.96-2.944 2.176h-.064c-.128-1.408-.704-2.176-2.496-2.176-1.536 0-2.496.96-2.944 2.176v-2.112l-3.2.896c.384.448.768 1.28.768 2.24v3.52c0 1.152-.064 2.368-.384 3.264h3.264c-.256-.832-.32-1.92-.32-3.136v-4.352c.512-.448.896-.576 1.6-.576.96 0 1.216.448 1.216 1.28v3.648c0 1.28-.064 2.304-.32 3.136h3.264c-.32-.896-.384-2.112-.384-3.264v-4.224c.448-.448.896-.576 1.6-.576.96 0 1.216.448 1.216 1.28v3.648c0 1.28-.064 2.304-.32 3.136h3.264c-.32-.896-.384-2.112-.384-3.264v-3.776zm8.32 4.48v-4.288c0-2.048-.96-3.072-3.456-3.072-1.92 0-3.84.96-3.84 2.304 0 .704.512 1.088 1.088 1.088.64 0 1.024-.384 1.216-1.28.128-.64.384-.96 1.024-.96 1.024 0 1.408.576 1.408 1.664v.192c0 1.024-.768 1.408-2.176 1.92-1.472.576-2.88 1.28-2.88 2.816 0 1.472 1.024 2.432 2.56 2.432 1.28 0 2.112-.576 2.496-1.792h.064c.064.96.704 1.792 1.92 1.792 1.088 0 1.6-.512 1.856-1.344.064-.192.128-.384.192-.64-.128.128-.448.128-.512.128-.64 0-.96-.192-.96-.96zm-2.56.704c-.192.384-.448.64-1.216.64s-1.216-.576-1.216-1.408c0-1.024.32-1.536 1.28-1.984.704-.384.96-.512 1.152-.832zm9.408.128c-1.728 0-2.752-1.024-2.752-3.584 0-2.176.768-3.52 2.048-3.52.64 0 .896.128.96.832.128.832.448 1.28 1.152 1.28.768 0 1.216-.512 1.216-1.216 0-1.024-.96-2.048-3.2-2.048-2.368 0-4.672 1.92-4.672 5.312 0 3.072 1.792 4.864 4.352 4.864 2.24 0 3.328-1.536 3.584-2.688l-.064-.128c-.64.576-1.6.896-2.624.896zm11.712-5.312c0-1.92-.64-2.944-2.624-2.944-1.536 0-2.496.96-2.944 2.112h-.064v-3.648l.128-2.56-.064-.064-3.328.896c.384.512.704 1.152.704 2.432v7.552c0 1.152-.064 2.368-.384 3.264h3.264c-.256-.832-.32-1.92-.32-3.136v-4.288c.384-.384.96-.576 1.728-.576.96 0 1.344.448 1.344 1.28v3.648c0 1.28-.064 2.304-.32 3.136h3.264c-.32-.896-.384-2.112-.384-3.264v-3.776zm4.288-4.992c0-.896-.64-1.536-1.6-1.536s-1.6.704-1.6 1.536.64 1.536 1.6 1.536 1.6-.704 1.6-1.536zm-.192 4.608.064-2.432-.064-.064-3.392.96c.384.448.768 1.28.768 2.24v3.456c0 1.152-.064 2.368-.384 3.264h3.328c-.32-.896-.384-2.112-.384-3.264zm9.792.384c0-1.92-.64-2.944-2.624-2.944-1.536 0-2.624.96-3.072 2.176h-.064v-2.112l-.064-.064-3.2.96c.384.448.768 1.28.768 2.24v3.52c0 1.152-.064 2.368-.384 3.264h3.264c-.256-.832-.32-1.92-.32-3.136v-4.352c.448-.384.96-.576 1.728-.576.96 0 1.344.448 1.344 1.28v3.648c0 1.28-.064 2.304-.32 3.136h3.264c-.32-.896-.384-2.112-.384-3.264v-3.776zm9.28 1.664c0-3.008-1.152-4.608-3.712-4.608-2.624 0-4.608 2.176-4.608 5.376s2.048 4.8 4.544 4.8c2.176 0 3.328-1.408 3.712-2.816l-.064-.192c-.448.448-1.152 1.088-2.688 1.088-1.728 0-2.944-.96-2.944-3.392v-.32zm-3.776-3.392c1.088 0 1.344.96 1.344 2.496l-3.264.256c.192-1.856.832-2.752 1.92-2.752zm8.64-1.728c.96 0 1.6-.704 1.6-1.536 0-.896-.64-1.536-1.6-1.536s-1.6.704-1.6 1.536.64 1.536 1.6 1.536zm1.408 3.072.064-2.432-.064-.064-3.392.96c.384.448.768 1.28.768 2.24v3.456c0 1.152-.064 2.368-.384 3.264h3.328c-.32-.896-.384-2.112-.384-3.264zm9.792.384c0-1.92-.64-2.944-2.624-2.944-1.536 0-2.624.96-3.072 2.176h-.064v-2.112l-.064-.064-3.2.96c.384.448.768 1.28.768 2.24v3.52c0 1.152-.064 2.368-.384 3.264h3.264c-.256-.832-.32-1.92-.32-3.136v-4.352c.448-.384.96-.576 1.728-.576.96 0 1.344.448 1.344 1.28v3.648c0 1.28-.064 2.304-.32 3.136h3.264c-.32-.896-.384-2.112-.384-3.264zm4.352 3.968v-5.312h2.24l.256-1.408h-2.496v-2.304l-.064-.064-3.52 3.584v.192h.96v5.76c0 1.856.768 2.816 2.752 2.816 1.152 0 1.984-.512 2.368-1.28.128-.32.192-.512.256-.832-.32.192-.704.256-1.408.256-.96.064-1.344-.32-1.344-1.408zm11.2-2.304c0-3.008-1.152-4.608-3.712-4.608-2.624 0-4.608 2.176-4.608 5.376s2.048 4.8 4.544 4.8c2.176 0 3.328-1.408 3.712-2.816l-.064-.192c-.448.448-1.152 1.088-2.688 1.088-1.728 0-2.944-.96-2.944-3.392v-.32zm-3.776-3.392c1.088 0 1.344.96 1.344 2.496l-3.264.256c.192-1.856.832-2.752 1.92-2.752zm7.552-2.496c0-.512.064-1.92.064-2.816l-.064-.064-3.392.96c.384.448.768 1.28.768 2.24v7.68c0 1.152-.064 2.368-.384 3.264h3.328c-.32-.896-.384-2.112-.384-3.264zm4.224 0c0-.512.064-1.92.064-2.816l-.064-.064-3.392.96c.384.448.768 1.28.768 2.24v7.68c0 1.152-.064 2.368-.384 3.264h3.328c-.32-.896-.384-2.112-.384-3.264zm4.224 3.84.064-2.432-.064-.064-3.392.96c.384.448.768 1.28.768 2.24v3.456c0 1.152-.064 2.368-.384 3.264h3.328c-.32-.896-.384-2.112-.384-3.264zm-1.408-3.072c.96 0 1.6-.704 1.6-1.536 0-.896-.64-1.536-1.6-1.536s-1.6.704-1.6 1.536c.064.832.704 1.536 1.6 1.536zm10.88 1.92c.192.256.384.512.896.512.64 0 .96-.512.96-1.152 0-.704-.576-1.152-1.408-1.152-.576 0-1.472.448-1.92 1.28h-.064c-.704-.576-1.728-.832-2.688-.832-2.112 0-3.968 1.216-3.968 3.52 0 1.344.832 2.304 1.984 2.752v.064c-.96.256-1.728.96-1.728 1.92 0 1.024.832 1.792 1.792 1.984v.064c-1.344.256-2.496.704-2.496 1.536 0 1.024 1.28 1.856 4.416 1.856 3.328 0 5.44-1.28 5.44-3.648 0-1.536-.96-2.24-2.56-2.24-1.152 0-2.944.128-4.096.128-.64 0-.896-.32-.896-.704s.128-.576.384-.768c.512.192 1.088.256 1.664.256 2.112 0 3.968-1.216 3.968-3.52 0-.768-.384-1.536-.896-2.176.128-.128.32-.128.512-.128.384.064.512.256.704.448zm-5.824 9.088c.512-.064 2.816-.192 3.904-.192.768 0 1.152.192 1.152.832 0 .832-1.024 1.6-3.52 1.6-1.6 0-2.304-.512-2.304-1.28.064-.512.384-.896.768-.96zm1.6-4.864c-.96 0-1.6-.768-1.6-2.176 0-1.664.576-2.304 1.536-2.304s1.6.768 1.6 2.176c0 1.664-.576 2.304-1.536 2.304z"/><path d="m127.36 22.848c0-3.008-1.152-4.608-3.712-4.608-2.624 0-4.608 2.176-4.608 5.376s2.048 4.8 4.544 4.8c2.176 0 3.328-1.408 3.712-2.816l-.064-.192c-.448.448-1.152 1.088-2.688 1.088-1.728 0-2.944-.96-2.944-3.392v-.32zm-3.776-3.392c1.088 0 1.344.96 1.344 2.496l-3.264.256c.192-1.856.832-2.752 1.92-2.752zm13.12 1.728c0-1.92-.64-2.944-2.624-2.944-1.536 0-2.624.96-3.072 2.176h-.064v-2.112l-.064-.064-3.2.96c.384.448.768 1.28.768 2.24v3.52c0 1.152-.064 2.368-.384 3.264h3.264c-.256-.832-.32-1.92-.32-3.136v-4.352c.448-.384.96-.576 1.728-.576.96 0 1.344.448 1.344 1.28v3.648c0 1.28-.064 2.304-.32 3.136h3.264c-.32-.896-.384-2.112-.384-3.264v-3.776zm6.272 5.312c-1.728 0-2.752-1.024-2.752-3.584 0-2.176.768-3.52 2.048-3.52.64 0 .896.128.96.832.128.832.448 1.28 1.152 1.28.768 0 1.216-.512 1.216-1.216 0-1.024-.96-2.048-3.2-2.048-2.368 0-4.672 1.92-4.672 5.312 0 3.072 1.792 4.864 4.352 4.864 2.24 0 3.328-1.536 3.584-2.688l-.064-.128c-.576.576-1.536.896-2.624.896zm8.704.064c-1.728 0-2.944-.96-2.944-3.392v-.32h5.696c0-3.008-1.152-4.608-3.712-4.608-2.624 0-4.608 2.176-4.608 5.376s2.048 4.8 4.544 4.8c2.176 0 3.328-1.408 3.712-2.816l-.064-.192c-.384.512-1.088 1.152-2.624 1.152zm-1.024-7.104c1.088 0 1.344.96 1.344 2.496l-3.264.256c.128-1.856.832-2.752 1.92-2.752z"/></g></svg>